<?xml version="1.0" encoding="utf-8"?>
<!-- Generator: Adobe Illustrator 20.1.0, SVG Export Plug-In . SVG Version: 6.00 Build 0)  -->
<svg version="1.1" id="Layer_1" xmlns="http://www.w3.org/2000/svg" xmlns:xlink="http://www.w3.org/1999/xlink" x="0px" y="0px"
	 viewBox="0 0 135.1 135.1" style="enable-background:new 0 0 135.1 135.1;" xml:space="preserve">
<style type="text/css">
	.st0{fill:#B42B25;}
	.st1{fill:#FFFFFF;}
</style>
<circle class="st0" cx="67.6" cy="67.4" r="66.4"/>
<g>
	<path class="st1" d="M38.5,35.6c0,1.1-0.9,2.1-2.1,2.1c-0.9,0-1.7,0.2-2.4,0.8c-0.8,0.5-1.4,1.2-1.8,1.9c-1,1.3-1.4,2.8-1.6,3.4
		v7.6c0,1.2-1,2.1-2.2,2.1s-2.1-1-2.1-2.1V35.6c0-1.2,1-2.1,2.1-2.1c1.2,0,2.2,0.9,2.2,2.1v0.3c0.2-0.3,0.6-0.6,0.8-0.8
		c1.3-0.9,3-1.6,5.1-1.6C37.6,33.5,38.5,34.4,38.5,35.6z"/>
	<path class="st1" d="M37.9,43.5c0-5.5,4.3-10,9.8-10c5.2,0,9.3,3.9,9.7,9.3c0,0,0,0.1,0,0.2s0,0.3,0,0.4c-0.1,1-1,1.6-2.1,1.6H42.4
		c0.2,0.9,0.6,2,1.4,2.6c0.8,1,2.4,1.7,3.8,1.8c1.4,0.1,3.2-0.2,4.2-1c0.8-0.9,2.5-0.8,3-0.1c0.5,0.6,0.9,1.8,0,2.6
		c-2,1.8-4.3,2.6-7.2,2.6C42.1,53.5,37.9,48.9,37.9,43.5z M42.2,41.5h11.3c-0.4-1.6-2.4-4-5.9-4.2C44.2,37.4,42.5,39.9,42.2,41.5z"
		/>
	<path class="st1" d="M78.2,51.3c0,1.2-1,2.2-2.2,2.2c-1.1,0-1.9-0.8-2.1-1.7c-1.5,1-3.4,1.7-5.5,1.7c-5.4,0-9.7-4.6-9.7-10
		c0-5.5,4.3-10.1,9.7-10.1c2,0,3.9,0.6,5.4,1.7v-7.5c0-1.2,1-2.2,2.2-2.2s2.2,1,2.2,2.2v15.9l0,0V51.3z M68.4,37.8
		c-1.4,0-2.8,0.6-3.8,1.6s-1.6,2.4-1.6,4c0,1.5,0.6,3,1.6,4s2.3,1.6,3.8,1.6s2.8-0.6,3.8-1.6s1.6-2.4,1.6-4s-0.6-3-1.6-4
		C71.2,38.4,69.9,37.8,68.4,37.8z"/>
	<path class="st1" d="M84.5,28.5c0,1.2-0.9,2.2-2.2,2.2c-1.2,0-2.2-1-2.2-2.2v-0.8c0-1.2,1-2.2,2.2-2.2s2.2,1,2.2,2.2V28.5z
		 M84.5,35.7v15.6c0,1.2-0.9,2.2-2.2,2.2c-1.2,0-2.2-1-2.2-2.2V35.7c0-1.3,1-2.2,2.2-2.2C83.6,33.5,84.5,34.4,84.5,35.7z"/>
	<path class="st1" d="M86.5,47.8c0.7-1,2.1-1.1,3-0.3c1,0.9,2.8,1.8,4.4,1.8c1.1,0,2.1-0.4,2.7-0.8c0.6-0.5,0.7-0.9,0.7-1.2
		c0-0.2,0-0.3-0.1-0.4c0-0.1-0.2-0.3-0.5-0.5c-0.6-0.4-1.8-0.8-3.2-1.1l0,0c-1.2-0.2-2.4-0.6-3.5-1c-1.1-0.5-2-1.2-2.8-2.3
		c-0.4-0.7-0.7-1.6-0.7-2.5c0-1.8,1-3.4,2.4-4.4s3.1-1.5,4.9-1.5c2.8,0,4.7,1.3,6,2.2c1,0.6,1.2,2,0.6,3s-2,1.2-3,0.6
		c-1.3-0.8-2.4-1.5-3.7-1.5c-1,0-1.9,0.3-2.4,0.7s-0.6,0.7-0.6,0.9s0,0.2,0.1,0.3c0,0.1,0.2,0.2,0.4,0.4c0.5,0.4,1.6,0.7,2.9,1l0,0
		l0,0c1.3,0.2,2.6,0.6,3.7,1.2c1.1,0.5,2.2,1.2,2.8,2.4c0.5,0.8,0.8,1.7,0.8,2.6c0,2-1.1,3.6-2.5,4.7c-1.4,1-3.2,1.6-5.2,1.6
		c-3.1,0-5.5-1.5-7.1-2.8C85.9,50,85.8,48.7,86.5,47.8z"/>
	<path class="st1" d="M115.4,33.6c-0.1-0.4-0.5-0.7-0.8-0.9c-0.2-0.1-0.6-0.1-0.9,0c-0.5,0.2-0.8,0.5-1,0.9c-0.3,0.5-1.2,1.1-2,1.4
		c-0.8,0.3-1.7,0.2-2.3-0.1c-0.4-0.1-0.8-0.4-1.1-0.8l6.7-2.8c0.8-0.4,1.1-1,0.9-1.7l-0.1-0.3c-1.4-3-4.7-4.3-7.7-3
		c-3.1,1.2-4.5,4.8-3.2,8c0.6,1.5,1.8,2.7,3.3,3.4c0.7,0.3,1.5,0.5,2.3,0.5c0.8,0,1.6-0.2,2.4-0.5c1.6-0.7,2.7-1.8,3.4-3.2
		C115.5,34.1,115.5,33.8,115.4,33.6z M106.2,31.7c0-0.8,0.3-2.2,1.9-3c0.4-0.1,0.9-0.2,1.3-0.2c1.1,0,1.9,0.4,2.4,0.9L106.2,31.7z"
		/>
	<path class="st1" d="M103.7,90.9C106,79.3,98,70.2,85.5,69.6v0.1c-0.6-0.1-1.1-0.1-1.7-0.1c-1,0-2,0.1-2.9,0.3
		c-0.1,0-0.2,0.1-0.3,0.1c-0.2,0-0.3,0.1-0.5,0.1c-1-1.6-2.3-3.2-3.7-4.6c-4.7-4.7-10.4-7.1-17-7.1c-6.7,0-12.4,2.4-17.1,7.1
		c-4.7,4.7-7.1,10.5-7.1,17.2c0,1.9,0.2,3.9,0.7,5.8c-0.5,0.1-0.9,0.2-1.3,0.4c-1.9,0.7-3.7,1.9-5.3,3.5c-3,3-4.4,6.6-4.4,10.7
		s1.5,7.8,4.4,10.7c2.9,3,6.6,4.4,10.7,4.4c11.5,0,23.1,0,34.6,0c0-0.1,0-0.2,0-0.3c0-1,0-2.4-1.1-2.6c-0.3-0.1-0.7-0.1-1.1-0.1
		c-1.6-0.1-3.6,0.2-5.2-0.7c-2.6-1.5-2.9-3.4-2.6-6.1c-0.2-0.2-0.4-0.4-0.5-0.6c-0.2-0.3-0.4-0.7-0.4-1.1c0-0.2,0-0.5,0.1-0.7
		c-1-0.6-0.5-2.1-0.2-2.6c0.1-0.1,0-0.8,0-0.9c-0.3,0-0.6,0-0.9,0c-1.6,0.1-3-1.3-2.6-2.8c0.5-1.7,1.4-3.2,2.1-4.6
		c0.5-1.1,1.4-1.8,1.9-2.7c0.3-0.9,0-1.9,0.1-3c0.1-1.4,0.4-2.8,0.7-4c-0.4,0-0.8-0.1-1.1-0.4c0,0,0,0-0.1,0
		c-2.2-2.2,0.5-5.7,2.5-6.9c2.3-1.4,5-2.3,7.3-2.6c0.3-0.1,0.6,0,0.8-0.1c2.2-1.1,3.8-1.9,6.1-2.3v20.1c0,1,0.3,2,0.8,2.8l-10,10
		c-0.9-0.3-2-0.1-2.7,0.7c-1.1,1.1-1.1,2.8,0,3.9c1.1,1.1,2.8,1.1,3.9,0c0.7-0.7,1-1.8,0.7-2.7l10-10c0.9,0.6,1.9,0.9,3,0.9
		c3.1,0,5.5-2.5,5.5-5.5c0-3.1-2.5-5.5-5.5-5.5c-0.8,0-1.5,0.2-2.1,0.4l-0.2-15.3c12,0.6,19.5,9.6,16.4,21
		c-1.3,4.7-4.6,8.3-5.9,12.6c-0.3,0.8-0.2,1.8-0.1,2.8c0.4,3.3,2.2,5.8,3,8.5c0,0.1,0.1,0.3,0,0.4h8.5c3.1-3.1,5-7.7,5-12.8
		C110.6,99.2,107.9,93.9,103.7,90.9z"/>
</g>
</svg>
